<?xml version="1.0" encoding="UTF-8" standalone="no"?>
<!-- Created with Inkscape (http://www.inkscape.org/) -->

<svg
   xmlns:dc="http://purl.org/dc/elements/1.1/"
   xmlns:cc="http://creativecommons.org/ns#"
   xmlns:rdf="http://www.w3.org/1999/02/22-rdf-syntax-ns#"
   xmlns:svg="http://www.w3.org/2000/svg"
   xmlns="http://www.w3.org/2000/svg"
   xmlns:sodipodi="http://sodipodi.sourceforge.net/DTD/sodipodi-0.dtd"
   xmlns:inkscape="http://www.inkscape.org/namespaces/inkscape"
   width="31.942751mm"
   height="36.798729mm"
   viewBox="0 0 31.942751 36.798729"
   version="1.1"
   id="svg8"
   inkscape:version="0.92.3 (2405546, 2018-03-11)"
   sodipodi:docname="logo.svg">
  <defs
     id="defs2">
    <inkscape:perspective
       sodipodi:type="inkscape:persp3d"
       inkscape:vp_x="0 : 29.104165 : 1"
       inkscape:vp_y="0 : 999.99997 : 0"
       inkscape:vp_z="58.208333 : 29.104165 : 1"
       inkscape:persp3d-origin="29.104167 : 19.402776 : 1"
       id="perspective4535" />
  </defs>
  <sodipodi:namedview
     id="base"
     pagecolor="#ffffff"
     bordercolor="#666666"
     borderopacity="1.0"
     inkscape:pageopacity="0.0"
     inkscape:pageshadow="2"
     inkscape:zoom="0.98994949"
     inkscape:cx="-51.566773"
     inkscape:cy="146.51426"
     inkscape:document-units="mm"
     inkscape:current-layer="g4634"
     showgrid="false"
     fit-margin-top="0"
     fit-margin-left="0"
     fit-margin-right="0"
     fit-margin-bottom="0"
     inkscape:window-width="1280"
     inkscape:window-height="968"
     inkscape:window-x="-4"
     inkscape:window-y="-4"
     inkscape:window-maximized="1" />
  <metadata
     id="metadata5">
    <rdf:RDF>
      <cc:Work
         rdf:about="">
        <dc:format>image/svg+xml</dc:format>
        <dc:type
           rdf:resource="http://purl.org/dc/dcmitype/StillImage" />
        <dc:title></dc:title>
      </cc:Work>
    </rdf:RDF>
  </metadata>
  <g
     inkscape:label="Calque 1"
     inkscape:groupmode="layer"
     id="layer1"
     transform="translate(-173.08775,-237.01086)">
    <path
       style="fill:none;stroke:#000000;stroke-width:0.13229167;stroke-linecap:butt;stroke-linejoin:miter;stroke-miterlimit:4;stroke-dasharray:none;stroke-opacity:1"
       d="m 156.18423,210.67663 c -0.80911,-0.0549 -1.91292,-0.0953 -2.41867,-0.33831 -1.34998,-0.61883 -1.62881,-1.13324 -2.15056,-1.75521 -0.60442,-0.86239 -0.68308,-1.66528 -0.70529,-2.54683 l 0.053,-0.90835 3.75323,1.42535 c 0.88846,0.38545 1.48928,0.6522 2.07372,1.61526 0.14843,0.24547 0.23892,1.10691 0.1408,1.87966 -0.44391,-0.0917 -0.64749,-0.57482 -1.09009,-0.96969 -0.33824,-0.27257 -0.62856,-0.5739 -1.06907,-0.78511 l -1.20271,-0.61806 v 0 c -0.0694,0.3489 0.48477,0.44119 0.89915,0.66031 0.80157,0.45409 1.41783,0.99061 1.90861,1.63942 0.21011,0.23449 0.0725,0.63765 -0.19208,0.70156 z"
       id="path4537"
       inkscape:connector-curvature="0"
       sodipodi:nodetypes="cccccccccccccccc" />
    <g
       id="g4634">
      <g
         aria-label="sushi
place"
         style="font-style:normal;font-variant:normal;font-weight:normal;font-stretch:normal;font-size:19.97097015px;line-height:0.69999999;font-family:GoodDog;-inkscape-font-specification:'GoodDog, Normal';font-variant-ligatures:normal;font-variant-caps:normal;font-variant-numeric:normal;font-feature-settings:normal;text-align:start;letter-spacing:0px;word-spacing:0px;writing-mode:lr-tb;text-anchor:start;fill:#b1c56e;fill-opacity:1;stroke:none;stroke-width:0.59912908"
         id="text4531">
        <path
           d="m 177.33411,247.8737 c -1.31809,-0.57916 -4.47352,1.33806 -3.69465,2.93575 0.63908,1.33806 2.17685,1.67757 3.51491,2.27671 0.37946,0.15976 0.91867,0.59913 0.91867,0.87872 0,1.13836 -1.63763,1.63764 -2.57627,1.15833 -0.37945,-0.17974 -0.43936,-0.93864 -0.91867,-0.8987 -0.55919,0.0399 -1.21824,0.65905 -0.93864,1.21824 1.19827,2.47641 4.87295,1.5178 5.91145,-0.21969 0.41939,-0.69898 0.63907,-1.77742 0.0599,-2.33662 -0.93864,-0.85875 -1.9372,-1.29812 -3.15543,-1.73748 -0.39943,-0.1398 -1.3181,-1.05847 -0.73894,-1.43792 1.51781,-0.95861 2.91579,1.43792 3.93431,0.79884 0.21968,-0.13979 0.47931,-0.71896 0.31954,-1.01852 -0.47931,-0.95862 -1.6576,-1.19827 -2.63619,-1.61766 z"
           style="font-style:normal;font-variant:normal;font-weight:normal;font-stretch:normal;font-size:19.97110367px;line-height:0.69999999;font-family:GoodDog;-inkscape-font-specification:'GoodDog, Normal';font-variant-ligatures:normal;font-variant-caps:normal;font-variant-numeric:normal;font-feature-settings:normal;text-align:center;writing-mode:lr-tb;text-anchor:middle;fill:#b1c56e;fill-opacity:1;stroke-width:0.59912908"
           id="path4636"
           inkscape:connector-curvature="0" />
        <path
           d="m 180.5635,249.65113 c -0.19971,2.71607 0.67902,7.6689 4.09408,6.21101 2.17685,-0.93864 2.8359,-3.89437 2.6961,-6.31087 -0.0599,-1.19827 -1.09841,-2.97569 -2.49639,-2.39653 -0.49928,0.21968 -0.19971,1.01852 0.0999,1.49783 1.19826,1.91723 0.71896,4.6333 -0.99856,5.81159 -0.77887,0.51925 -0.99855,-1.39798 -1.19826,-2.19682 -0.19972,-1.29812 0,-2.61621 0,-3.91434 0,-0.69898 -0.99856,-0.8987 -1.69755,-0.59913 -0.59913,0.39942 -0.45933,1.19827 -0.49928,1.89726 z"
           style="font-style:normal;font-variant:normal;font-weight:normal;font-stretch:normal;font-size:19.97110367px;line-height:0.69999999;font-family:GoodDog;-inkscape-font-specification:'GoodDog, Normal';font-variant-ligatures:normal;font-variant-caps:normal;font-variant-numeric:normal;font-feature-settings:normal;text-align:center;writing-mode:lr-tb;text-anchor:middle;fill:#b1c56e;fill-opacity:1;stroke-width:0.59912908"
           id="path4638"
           inkscape:connector-curvature="0" />
        <path
           d="m 191.57133,247.8737 c -1.3181,-0.57916 -4.47353,1.33806 -3.69466,2.93575 0.63908,1.33806 2.17685,1.67757 3.51492,2.27671 0.37945,0.15976 0.91867,0.59913 0.91867,0.87872 0,1.13836 -1.63763,1.63764 -2.57628,1.15833 -0.37945,-0.17974 -0.43936,-0.93864 -0.91867,-0.8987 -0.55919,0.0399 -1.21823,0.65905 -0.93864,1.21824 1.19827,2.47641 4.87295,1.5178 5.91145,-0.21969 0.41939,-0.69898 0.63907,-1.77742 0.0599,-2.33662 -0.93864,-0.85875 -1.9372,-1.29812 -3.15543,-1.73748 -0.39942,-0.1398 -1.3181,-1.05847 -0.73893,-1.43792 1.5178,-0.95861 2.91578,1.43792 3.9343,0.79884 0.21969,-0.13979 0.47931,-0.71896 0.31954,-1.01852 -0.4793,-0.95862 -1.6576,-1.19827 -2.63618,-1.61766 z"
           style="font-style:normal;font-variant:normal;font-weight:normal;font-stretch:normal;font-size:19.97110367px;line-height:0.69999999;font-family:GoodDog;-inkscape-font-specification:'GoodDog, Normal';font-variant-ligatures:normal;font-variant-caps:normal;font-variant-numeric:normal;font-feature-settings:normal;text-align:center;writing-mode:lr-tb;text-anchor:middle;fill:#b1c56e;fill-opacity:1;stroke-width:0.59912908"
           id="path4640"
           inkscape:connector-curvature="0" />
        <path
           d="m 195.00043,250.88933 c -0.15977,1.49784 -0.23966,2.91579 -0.23966,4.41362 0,0.23965 0.49928,0.23965 0.65905,0.31954 0.33951,0.0799 0.91867,-0.15977 1.07844,-0.4194 0.57916,-1.23821 1.25818,-2.31665 2.17685,-3.23532 0.81882,1.57772 -0.17974,3.49495 0.8987,4.81304 0.33951,0.33951 1.37801,0.0999 1.41795,-0.39942 0.19971,-2.077 -0.33951,-4.17396 -0.83879,-6.25096 -1.47786,-0.65904 -2.65616,0.7589 -3.3152,1.91723 -0.41939,-1.49783 -0.15977,-2.99567 0,-4.4935 0,-0.31954 0,-0.65905 -0.25963,-0.81881 -0.57916,-0.25963 -1.2382,0 -1.39797,0.39942 -0.59914,1.09841 -0.04,2.51636 -0.17974,3.75456 z m 3.39508,-1.55774 c 0.8987,-0.83879 1.33807,-0.47931 1.81738,-0.31954 0.55919,0.19971 1.01852,-0.73893 0.53921,-1.11838 -0.6191,-0.49928 -2.21679,-1.21824 -2.81592,0.31954 -0.31954,0.79884 0.21968,1.35803 0.45933,1.11838 z"
           style="font-style:normal;font-variant:normal;font-weight:normal;font-stretch:normal;font-size:19.97110367px;line-height:0.69999999;font-family:GoodDog;-inkscape-font-specification:'GoodDog, Normal';font-variant-ligatures:normal;font-variant-caps:normal;font-variant-numeric:normal;font-feature-settings:normal;text-align:center;writing-mode:lr-tb;text-anchor:middle;fill:#b1c56e;fill-opacity:1;stroke-width:0.59912908"
           id="path4642"
           inkscape:connector-curvature="0" />
        <path
           d="m 201.8683,251.74809 c 0,1.11838 -0.25962,2.33662 0.0799,3.47497 0.19971,0.61911 0.95861,0.53922 1.57771,0.35948 0.0799,0 0.17974,-0.17974 0.17974,-0.25962 0.25963,-0.95861 -0.3395,-1.83734 0,-2.79595 0.25963,-0.77888 -0.0998,-1.65761 0.51925,-2.53634 0.33951,-0.3395 -0.0799,-0.79884 -0.43936,-0.95861 -0.59913,-0.25962 -1.29812,-0.0799 -1.55775,0.43937 -0.35948,0.69898 -0.35948,1.47786 -0.35948,2.2767 z m 0.49928,-4.51347 c 0.45934,0.51925 1.07844,0.59914 1.53777,0.35948 0.35948,-0.19971 0.8987,-1.09841 0.53922,-1.63763 -0.35948,-0.51925 -1.17829,-0.53922 -1.79739,-0.17974 -0.2796,0.17974 -0.59914,1.05847 -0.2796,1.45789 z"
           style="font-style:normal;font-variant:normal;font-weight:normal;font-stretch:normal;font-size:19.97110367px;line-height:0.69999999;font-family:GoodDog;-inkscape-font-specification:'GoodDog, Normal';font-variant-ligatures:normal;font-variant-caps:normal;font-variant-numeric:normal;font-feature-settings:normal;text-align:center;writing-mode:lr-tb;text-anchor:middle;fill:#b1c56e;fill-opacity:1;stroke-width:0.59912908"
           id="path4644"
           inkscape:connector-curvature="0" />
        <path
           d="m 173.64695,263.91049 c -0.25963,2.55631 -0.79885,5.03272 -0.43937,7.68888 0.0999,0.81881 0.15977,1.83734 0.8987,2.09696 0.5592,0.19972 1.83735,0.19972 1.47787,-0.53922 -0.1398,-0.25962 -0.4194,-0.55919 -0.43937,-0.67901 -0.51925,-1.81737 -0.63907,-2.5563 -0.27959,-4.39365 1.73748,-0.63907 4.55341,-0.43936 4.833,-3.07555 0.19971,-1.93719 -2.11693,-2.47641 -3.75456,-2.65615 -0.17974,-0.0799 0,-0.71896 -0.2796,-0.99856 -0.35948,-0.45933 -1.01853,-0.37945 -1.55775,0 -0.63907,0.43937 -0.0799,1.27815 -0.63907,1.73749 -0.17974,0.27959 0.21968,0.53922 0.17974,0.81881 z m 2.11694,0.0999 c 0.25962,-0.2796 0.91867,-0.19971 1.35803,0 0.37945,0.0799 0.77887,0.27959 0.67902,0.85876 -0.17974,1.33806 -1.73749,1.91722 -2.47642,1.57771 -0.43936,-0.21968 -0.0799,-1.91722 0.43937,-2.43647 z"
           style="font-style:normal;font-variant:normal;font-weight:normal;font-stretch:normal;font-size:19.97110367px;line-height:0.69999999;font-family:GoodDog;-inkscape-font-specification:'GoodDog, Normal';font-variant-ligatures:normal;font-variant-caps:normal;font-variant-numeric:normal;font-feature-settings:normal;text-align:center;writing-mode:lr-tb;text-anchor:middle;fill:#b1c56e;fill-opacity:1;stroke-width:0.59912908"
           id="path4646"
           inkscape:connector-curvature="0" />
        <path
           d="m 180.83155,263.43119 c -0.0999,2.07699 0.0799,4.0741 -0.49927,6.05124 -0.11983,0.39942 0,0.8987 0.29956,1.09841 0.57916,0.29957 1.27815,0.31954 1.55775,-0.29956 0.91867,-1.97714 0.27959,-4.17396 0.39942,-6.37079 0.0799,-1.378 0,-2.87584 0,-4.27381 0,-0.19971 0.11983,-0.59914 0.0999,-0.79885 -0.0799,-1.17829 -1.57772,-0.97858 -1.95717,-0.19971 -0.69899,1.39798 0.15977,3.19538 0.0999,4.79307 z"
           style="font-style:normal;font-variant:normal;font-weight:normal;font-stretch:normal;font-size:19.97110367px;line-height:0.69999999;font-family:GoodDog;-inkscape-font-specification:'GoodDog, Normal';font-variant-ligatures:normal;font-variant-caps:normal;font-variant-numeric:normal;font-feature-settings:normal;text-align:center;writing-mode:lr-tb;text-anchor:middle;fill:#b1c56e;fill-opacity:1;stroke-width:0.59912908"
           id="path4648"
           inkscape:connector-curvature="0" />
        <path
           d="m 188.78536,271.19995 c 1.09841,0.73893 1.21823,-1.91723 1.29812,-3.13547 0.1398,-1.85731 1.09841,-3.55485 0.29957,-5.2524 -0.8987,-1.87728 -3.8744,-1.31809 -5.31232,-0.33951 -0.17974,0.17974 0,1.7974 0.79885,1.51781 1.05846,-0.35948 1.7974,-0.8987 2.97569,-0.63908 0.43937,0.0799 0.31954,0.97859 0.1398,1.25818 -0.0399,0.0599 -2.85587,-0.6191 -4.47353,1.55775 -0.49928,0.65905 -0.71896,2.07699 -0.17974,2.79595 0.79885,1.33807 2.39653,1.25818 3.81448,1.51781 0.2796,0 0.29957,0.49927 0.63908,0.71896 z m -0.35948,-2.41651 c -0.15977,0.37945 -2.9757,-0.0599 -2.95573,-0.93864 0.04,-1.71751 2.05703,-1.378 3.21535,-1.81737 0.43937,1.05847 -0.0799,1.73749 -0.25962,2.75601 z m -0.47931,-1.59769 c -0.19971,-0.27959 -1.07844,-0.25962 -1.17829,0.23966 -0.0599,0.29956 0.21968,0.79884 0.65904,0.79884 0.33951,0 0.65905,-0.83878 0.51925,-1.0385 z"
           style="font-style:normal;font-variant:normal;font-weight:normal;font-stretch:normal;font-size:19.97110367px;line-height:0.69999999;font-family:GoodDog;-inkscape-font-specification:'GoodDog, Normal';font-variant-ligatures:normal;font-variant-caps:normal;font-variant-numeric:normal;font-feature-settings:normal;text-align:center;writing-mode:lr-tb;text-anchor:middle;fill:#b1c56e;fill-opacity:1;stroke-width:0.59912908"
           id="path4650"
           inkscape:connector-curvature="0" />
        <path
           d="m 190.97251,265.58807 c -0.31954,1.97714 0.65904,3.83445 2.51635,4.37367 1.53778,0.43936 3.39509,0.65904 4.39365,-0.87873 0.19971,-0.31954 0.7589,-1.57772 -0.11983,-1.5178 -0.87873,0.0399 -1.57772,1.47786 -2.63618,1.07844 -0.69899,-0.25963 -1.41795,-0.33951 -1.83735,-0.99856 -0.35948,-0.53922 -0.45933,-1.29812 -0.41939,-1.85731 0.0599,-0.97859 0.7589,-1.77743 1.55775,-2.39653 0.95861,-0.69899 2.07699,-0.61911 2.49638,-1.83735 0.1398,-0.41939 -0.02,-0.67901 -0.25962,-0.77887 -1.5178,-0.67902 -2.93575,0.7589 -4.03416,1.73749 -0.87873,0.77887 -1.43792,1.77742 -1.6576,3.07555 z"
           style="font-style:normal;font-variant:normal;font-weight:normal;font-stretch:normal;font-size:19.97110367px;line-height:0.69999999;font-family:GoodDog;-inkscape-font-specification:'GoodDog, Normal';font-variant-ligatures:normal;font-variant-caps:normal;font-variant-numeric:normal;font-feature-settings:normal;text-align:center;writing-mode:lr-tb;text-anchor:middle;fill:#b1c56e;fill-opacity:1;stroke-width:0.59912908"
           id="path4652"
           inkscape:connector-curvature="0" />
        <path
           d="m 198.69945,265.1487 c 0.0399,1.91723 0.47931,4.17396 2.47642,5.07266 0.95861,0.4194 1.93719,0.17974 2.83589,0.0399 0.81882,-0.11982 1.19827,-1.31809 0.47931,-1.83734 -1.11838,0.57917 -2.39653,1.11839 -3.09552,-0.0999 -0.11983,-0.19971 0.23965,-0.39942 0.31954,-0.4194 0.7589,-0.71896 2.99566,-1.53777 3.3152,-2.49638 0.02,-1.67758 -1.39798,-3.17541 -2.95572,-3.39509 -1.95717,-0.2796 -3.41506,1.15832 -3.37512,3.13546 z m 2.17685,1.01853 c -0.47931,-0.0399 -0.73893,-1.89726 0.1398,-2.35659 0.79884,-0.41939 2.45644,0.0999 2.01708,1.09841 -0.29957,0.95861 -1.21824,1.21824 -2.15688,1.25818 z"
           style="font-style:normal;font-variant:normal;font-weight:normal;font-stretch:normal;font-size:19.97110367px;line-height:0.69999999;font-family:GoodDog;-inkscape-font-specification:'GoodDog, Normal';font-variant-ligatures:normal;font-variant-caps:normal;font-variant-numeric:normal;font-feature-settings:normal;text-align:center;writing-mode:lr-tb;text-anchor:middle;fill:#b1c56e;fill-opacity:1;stroke-width:0.59912908"
           id="path4654"
           inkscape:connector-curvature="0" />
      </g>
      <g
         transform="matrix(1.1316017,0,0,1.1316017,35.733129,-38.187699)"
         id="g4626">
        <path
           style="opacity:1;fill:#b1c56e;fill-opacity:1;stroke:none;stroke-width:0.03340869;stroke-miterlimit:4;stroke-dasharray:none;stroke-opacity:1"
           d="m 134.01879,250.61235 c -0.89284,-0.0866 -1.19734,-0.16725 -1.79612,-0.47592 -0.41596,-0.21443 -0.67806,-0.41687 -1.12373,-0.86794 -0.94226,-0.95367 -1.28014,-1.83058 -1.24173,-3.22276 l 0.0189,-0.68522 1.8914,0.72258 c 1.04028,0.39742 2.08967,0.82019 2.33199,0.93948 0.51883,0.25542 1.09124,0.75691 1.33108,1.16617 0.19423,0.33142 0.32086,1.09494 0.25674,1.54797 l -0.0406,0.28713 -0.75072,-0.72144 c -0.66452,-0.6386 -0.84852,-0.77324 -1.60232,-1.17247 -0.46838,-0.24806 -0.8802,-0.45101 -0.91515,-0.45101 -0.10893,0 0.16656,0.1599 0.38986,0.27808 0,0 0.0839,0.0569 0.4118,0.21373 0.76429,0.37886 2.08425,1.46384 2.19539,1.89889 0.0959,0.37557 -0.3164,0.64359 -1.35673,0.54273 z"
           id="path4551"
           inkscape:connector-curvature="0"
           sodipodi:nodetypes="ccccccccccccsccccc" />
        <path
           style="opacity:1;fill:#b1c56e;fill-opacity:1;stroke:none;stroke-width:0.03770804;stroke-miterlimit:4;stroke-dasharray:none;stroke-opacity:1"
           d="m 137.90919,250.67789 c 1.163,0.0849 2.07604,-0.63623 2.60394,-1.53123 0.74041,-1.56013 1.08418,-2.44818 0.61582,-4.83402 l -0.35088,-1.1188 -1.39836,1.01409 c -0.9232,0.54349 -2.96335,2.64264 -3.19845,4.07865 -0.11135,0.33764 -0.0438,0.86981 -0.0438,0.86981 0.25093,1.76548 0.9488,1.69062 1.62392,-0.0404 0.21697,-0.55631 0.45189,-0.77726 0.64746,-1.03852 0.26228,-0.25889 1.58856,-2.28531 1.58856,-2.28531 0.084,0.37205 -0.52604,1.08014 -0.72389,1.40038 -0.80909,1.11311 -2.00988,2.19506 -1.36429,3.48534 z"
           id="path4551-8"
           inkscape:connector-curvature="0"
           sodipodi:nodetypes="ccccccsscsccc" />
      </g>
    </g>
  </g>
</svg>
