<?xml version="1.0" encoding="UTF-8" standalone="no"?>
<!-- Created with Inkscape (http://www.inkscape.org/) -->

<svg
   xmlns:dc="http://purl.org/dc/elements/1.1/"
   xmlns:cc="http://creativecommons.org/ns#"
   xmlns:rdf="http://www.w3.org/1999/02/22-rdf-syntax-ns#"
   xmlns:svg="http://www.w3.org/2000/svg"
   xmlns="http://www.w3.org/2000/svg"
   xmlns:sodipodi="http://sodipodi.sourceforge.net/DTD/sodipodi-0.dtd"
   xmlns:inkscape="http://www.inkscape.org/namespaces/inkscape"
   width="16.933414mm"
   height="9.5566874mm"
   viewBox="0 0 16.933414 9.5566874"
   version="1.1"
   id="svg8"
   inkscape:version="0.92.4 (5da689c313, 2019-01-14)"
   sodipodi:docname="color-paint.svg">
  <defs
     id="defs2" />
  <sodipodi:namedview
     id="base"
     pagecolor="#ffffff"
     bordercolor="#666666"
     borderopacity="1.0"
     inkscape:pageopacity="0.0"
     inkscape:pageshadow="2"
     inkscape:zoom="7.9195959"
     inkscape:cx="59.991601"
     inkscape:cy="46.319534"
     inkscape:document-units="mm"
     inkscape:current-layer="layer1"
     showgrid="false"
     fit-margin-top="0"
     fit-margin-left="0"
     fit-margin-right="0"
     fit-margin-bottom="0"
     inkscape:window-width="1600"
     inkscape:window-height="837"
     inkscape:window-x="-8"
     inkscape:window-y="-8"
     inkscape:window-maximized="1"
     inkscape:pagecheckerboard="true" />
  <metadata
     id="metadata5">
    <rdf:RDF>
      <cc:Work
         rdf:about="">
        <dc:format>image/svg+xml</dc:format>
        <dc:type
           rdf:resource="http://purl.org/dc/dcmitype/StillImage" />
        <dc:title></dc:title>
      </cc:Work>
    </rdf:RDF>
  </metadata>
  <g
     inkscape:label="Calque 1"
     inkscape:groupmode="layer"
     id="layer1"
     transform="translate(-0.05690304,-180.8726)">
    <path
       style="fill:#000000;stroke-width:1"
       d="m 2.5359261,190.40295 c -0.01203,-0.012 -0.02188,-0.0574 -0.02188,-0.10089 0,-0.11464 0.111633,-0.0854 0.125277,0.0328 0.0099,0.0861 -0.04754,0.12396 -0.103393,0.0681 z m 12.6482419,-0.38923 c -0.02284,-0.0275 -0.03239,-0.0592 -0.02122,-0.0703 0.02384,-0.0238 0.120361,0.0496 0.120361,0.0916 0,0.0452 -0.0535,0.0338 -0.09914,-0.0212 z m -2.51052,-0.22943 c -0.288868,-0.0244 -0.879683,-0.0615 -1.312921,-0.0825 -0.433239,-0.021 -0.798497,-0.0448 -0.811684,-0.0529 -0.05109,-0.0316 -1.8326569,-0.0886 -2.8321009,-0.0906 -0.92732,-0.002 -1.65043,0.0309 -2.092201,0.0948 -0.07698,0.0111 -0.24336,0.003 -0.369739,-0.0178 -0.12638,-0.0209 -0.283463,-0.0452 -0.349075,-0.0541 -0.128777,-0.0173 -0.607854,0.0764 -0.637753,0.12472 -0.02503,0.0405 -0.462362,0.0369 -0.613434,-0.005 -0.126165,-0.035 -0.161497,-0.11088 -0.08657,-0.18581 0.08363,-0.0836 -0.01425,-0.0943 -0.336421,-0.0368 -0.302123,0.0539 -0.343349,0.0549 -0.411831,0.0101 -0.09646,-0.0632 -0.09741,-0.13931 -0.0022,-0.17913 0.04062,-0.017 0.310205,-0.0773 0.599073,-0.13391 0.565104,-0.11084 0.66363,-0.14224 0.565233,-0.18015 -0.03215,-0.0124 -0.103825,-0.0134 -0.159273,-0.002 -0.07078,0.0142 -0.12671,0.002 -0.187736,-0.0412 -0.06269,-0.0442 -0.164719,-0.0655 -0.365941,-0.0763 -0.311562,-0.0167 -0.504672,-0.0948 -0.738585,-0.29849 -0.128902,-0.11227 -0.130199,-0.11559 -0.0709,-0.18128 0.03917,-0.0434 0.05282,-0.0908 0.03882,-0.13492 -0.02445,-0.0771 -0.0083,-0.0832 0.08621,-0.0326 0.08923,0.0478 0.192066,-0.0446 0.192066,-0.17246 0,-0.0828 0.0094,-0.0917 0.07848,-0.0743 0.04317,0.0108 0.0879,0.004 0.09942,-0.0142 0.02535,-0.041 -0.368434,-0.1684 -0.520558,-0.1684 -0.05828,0 -0.193358,-0.017 -0.300181,-0.0378 -0.161908,-0.0316 -0.217434,-0.0617 -0.333733,-0.18112 -0.07673,-0.0788 -0.13951,-0.15105 -0.13951,-0.16054 0,-0.009 0.03709,-0.0573 0.08243,-0.10611 0.174867,-0.18847 0.136938,-0.28492 -0.125111,-0.31814 -0.233254,-0.0296 -0.290162,-0.0486 -0.265433,-0.0886 0.03069,-0.0497 -0.05229,-0.0913 -0.184271,-0.0924 -0.06319,-5e-4 -0.135248,-0.0139 -0.160128,-0.0297 -0.04834,-0.0306 -0.02364,-0.10165 0.03535,-0.10165 0.0415,0 0.122222,-0.0986 0.123733,-0.15117 6.22e-4,-0.02 -0.04696,-0.0517 -0.105639,-0.0705 -0.09211,-0.0296 -0.06713,-0.0347 0.182949,-0.0376 0.256771,-0.003 0.288382,-0.01 0.278611,-0.0606 -0.0091,-0.0473 -0.07109,-0.0634 -0.355285,-0.0928 -0.35933497,-0.0371 -0.59045597,-0.0955 -0.59045597,-0.14909 0,-0.0173 -0.06647,-0.0599 -0.147718,-0.0948 -0.272104,-0.11664 -0.156524,-0.19696 0.283427,-0.19696 0.184842,0 0.29192297,-0.0118 0.272972,-0.03 -0.01715,-0.0165 -0.06501,-0.035 -0.106343,-0.041 -0.04134,-0.006 -0.07446,-0.0258 -0.0736,-0.0438 8.68e-4,-0.0193 0.126354,-0.0333 0.30493997,-0.0339 0.406532,-0.001 0.74811,-0.0469 0.769417,-0.10244 0.01021,-0.0266 0.0679,-0.0442 0.144758,-0.0442 0.07028,0 0.127792,-0.0129 0.127792,-0.0287 0,-0.0355 -0.155957,-0.0682 -0.356982,-0.0747 -0.0931,-0.003 -0.1176,-0.0101 -0.06335,-0.0184 0.06032,-0.009 0.08274,-0.0284 0.07045,-0.0605 -0.0099,-0.0258 0.0057,-0.056 0.03463,-0.0672 0.07888,-0.0303 0.0634,-0.0788 -0.02512,-0.0788 -0.0979,0 -0.579854,-0.15852 -0.513099,-0.16876 0.02708,-0.004 0.263428,-0.009 0.525214,-0.01 l 0.475975,-0.002 v -0.16421 c 0,-0.14199 0.0089,-0.16424 0.06565,-0.16491 0.04381,-5e-4 0.06244,-0.0196 0.05601,-0.0575 -0.0069,-0.0407 0.01271,-0.0567 0.06984,-0.0567 0.04372,0 0.09787,-0.0222 0.120348,-0.0492 0.05346,-0.0644 0.08354,-0.0621 0.154645,0.0118 0.107907,0.11221 0.698828,0.11435 0.698828,0.003 0,-0.0436 -0.10247,-0.0888 -0.229876,-0.10144 -0.0982,-0.01 -0.116311,-7.4e-4 -0.125284,0.0625 -0.01164,0.0819 -0.104402,0.10308 -0.104402,0.0238 0,-0.0662 -0.116113,-0.10733 -0.378969,-0.13426 -0.201947,-0.0207 -0.216737,-0.0176 -0.233977,0.0483 -0.01088,0.0416 -0.04458,0.0704 -0.08244,0.0704 -0.04769,0 -0.05905,-0.0157 -0.04449,-0.0616 0.02315,-0.0729 -0.05322,-0.10116 -0.277729,-0.1026 -0.248485,-0.002 -0.256107,-0.0542 -0.0104,-0.0717 0.267763,-0.0191 1.044092,-0.006 1.27419,0.022 0.116851,0.0141 0.220467,0.002 0.359709,-0.0432 0.304232,-0.0979 0.272005,-0.13681 -0.113187,-0.13681 -0.300074,0 -0.332237,-0.006 -0.321763,-0.0574 0.0078,-0.0385 0.03841,-0.0553 0.09268,-0.0508 0.08051,0.007 0.522135,-0.0527 0.560819,-0.0753 0.01112,-0.006 0.01309,-0.0491 0.0044,-0.0946 -0.01446,-0.0756 -0.03037,-0.0829 -0.18255,-0.0829 -0.136197,0 -0.183566,0.0161 -0.258779,0.0882 l -0.09207,0.0882 -0.09207,-0.0882 c -0.09905,-0.0949 -0.288564,-0.12117 -0.35984,-0.0499 -0.02919,0.0292 -0.06917,0.0244 -0.167981,-0.0202 -0.11995,-0.0541 -0.135358,-0.0545 -0.205349,-0.005 -0.04162,0.0291 -0.139938,0.053 -0.218488,0.053 -0.118284,0 -0.140948,-0.01 -0.131926,-0.0574 0.0068,-0.0359 0.04721,-0.0616 0.107536,-0.0685 0.05315,-0.006 0.114472,-0.0354 0.136265,-0.0652 0.0361,-0.0494 0.04499,-0.0496 0.100033,-0.003 0.0494,0.0422 0.12474,0.0489 0.413288,0.0369 0.35059,-0.0146 0.352878,-0.0153 0.352878,-0.0968 0,-0.0738 0.0099,-0.08 0.09848,-0.0619 0.05416,0.0111 0.142791,0.0292 0.196955,0.0403 0.161812,0.0331 0.111492,-0.0354 -0.07386,-0.10056 -0.278165,-0.0977 -0.293491,-0.10914 -0.251776,-0.18709 0.05101,-0.0953 -0.01127,-0.15729 -0.101475,-0.10096 -0.08594,0.0537 -0.148596,0.0507 -0.209256,-0.01 -0.06026,-0.0603 -0.03762,-0.1368 0.04853,-0.16415 0.039,-0.0124 0.06262,-0.05 0.06262,-0.0997 0,-0.0491 0.01897,-0.0798 0.04924,-0.0798 0.02708,0 0.04924,-0.013 0.04924,-0.0288 0,-0.0391 -0.789617,-0.0674 -0.861679,-0.0309 -0.04543,0.023 -0.05744,0.0152 -0.05744,-0.0377 0,-0.0592 -0.02142,-0.067 -0.188748,-0.0687 -0.103813,-9.9e-4 -0.247836,-0.0141 -0.320053,-0.029 -0.105774,-0.0219 -0.068,-0.0279 0.194267,-0.0309 0.436022,-0.005 0.732882,-0.0581 0.775966,-0.13857 0.01996,-0.0373 0.06891,-0.0624 0.122382,-0.0627 0.04901,-2.5e-4 0.11086,-0.0143 0.137435,-0.0311 0.06673,-0.0422 0.01247,-0.0576 -0.272076,-0.0772 -0.216671,-0.0149 -0.224782,-0.0127 -0.256102,0.0697 l -0.03234,0.0851 -0.07216,-0.086 c -0.06788,-0.0809 -0.09505,-0.0873 -0.457928,-0.10833 -0.212174,-0.0123 -0.393998,-0.0357 -0.404054,-0.0519 -0.01006,-0.0163 0.03921,-0.0296 0.109486,-0.0296 0.07027,0 0.136338,-0.009 0.146809,-0.019 0.01047,-0.0105 0.149572,-0.0237 0.309111,-0.0293 0.494774,-0.0175 0.953502,-0.0568 1.000231,-0.0857 0.03673,-0.0227 0.03354,-0.0483 -0.01796,-0.14395 -0.03446,-0.064 -0.05325,-0.12573 -0.04175,-0.13722 0.0289,-0.0289 0.11422,0.0468 0.138313,0.12273 0.01652,0.052 0.05156,0.0626 0.206433,0.0625 0.102595,-9e-5 0.223466,-0.0186 0.268602,-0.041 0.05958,-0.0296 0.266424,-0.038 0.754995,-0.0307 1.001776,0.0151 1.012906,0.015 2.641866,-0.0286 1.138153,-0.0305 1.543955,-0.0311 1.649972,-0.003 0.07733,0.0207 0.257685,0.0376 0.400794,0.0376 0.143109,0 0.269328,0.0148 0.280486,0.0328 0.01116,0.0181 -0.0093,0.0328 -0.04536,0.0328 -0.03611,0 -0.07478,0.0148 -0.08594,0.0328 -0.01316,0.0213 0.141905,0.0328 0.441212,0.0328 0.400404,0 0.4614989,0.007 0.4614989,0.0523 0,0.0465 0.05372,0.0498 0.484182,0.0301 0.2663,-0.0122 0.617126,-0.0263 0.779616,-0.0312 0.393818,-0.0119 0.410322,-0.0138 0.410322,-0.0474 0,-0.0159 -0.03324,-0.0402 -0.07386,-0.0539 -0.07038,-0.0237 -0.06945,-0.0256 0.01959,-0.0391 0.07317,-0.0112 0.08987,-0.028 0.07693,-0.0774 -0.02263,-0.0865 0.06519,-0.0827 0.09273,0.004 0.01174,0.037 0.0037,0.0885 -0.01787,0.11447 -0.02157,0.026 -0.03064,0.0696 -0.02016,0.0969 0.01512,0.0394 0.08215,0.0497 0.324627,0.0497 0.22344,0 0.325182,0.0137 0.378529,0.0511 0.150905,0.1057 0.120872,0.11168 -0.895407,0.17818 -0.725439,0.0475 -0.86258,0.0657 -0.792011,0.10517 0.03902,0.0218 0.251928,0.0192 0.643404,-0.008 0.423031,-0.0293 0.624656,-0.0309 0.727934,-0.006 0.09091,0.0223 0.516954,0.0312 1.171852,0.0245 0.565954,-0.006 1.01649,0.002 1.001189,0.0166 -0.03201,0.0312 -0.690893,0.0971 -0.972895,0.0973 -0.142461,1e-4 -0.213818,0.0177 -0.284846,0.0702 -0.07022,0.0519 -0.174035,0.078 -0.400787,0.10079 -0.51944,0.0522 -0.53947,0.0863 -0.04341,0.0739 0.252758,-0.006 0.529728,-0.0215 0.615485,-0.0339 0.109423,-0.0158 0.155923,-0.0111 0.155923,0.0156 0,0.021 -0.02216,0.0466 -0.04924,0.057 -0.08484,0.0326 -0.05377,0.0775 0.05357,0.0775 0.05654,0 0.152291,-0.0306 0.212769,-0.0679 0.06048,-0.0374 0.127713,-0.057 0.149413,-0.0436 0.02771,0.0171 0.02055,0.0325 -0.02402,0.0518 -0.03707,0.016 0.04576,0.0203 0.199135,0.0104 0.798833,-0.0516 0.885862,-0.0536 0.837059,-0.0188 -0.02708,0.0193 -0.08691,0.0272 -0.132959,0.0176 -0.04605,-0.01 -0.134677,0.006 -0.196956,0.0345 -0.108263,0.0498 -0.09471,0.0512 0.308773,0.0333 0.232103,-0.0103 0.449014,-0.0332 0.482023,-0.0509 0.07014,-0.0375 0.534159,-0.0436 0.570617,-0.007 0.01366,0.0135 -0.03188,0.0407 -0.101213,0.0604 -0.07163,0.0203 -0.130634,0.0593 -0.136665,0.0903 -0.009,0.0463 0.02172,0.0545 0.205161,0.0545 0.155112,0 0.213468,0.0115 0.207569,0.041 -0.0059,0.0296 0.04225,0.0389 0.172335,0.0334 0.241908,-0.0103 0.421641,0.0193 0.358814,0.059 -0.02583,0.0163 -0.09867,0.0302 -0.161859,0.0307 -0.110201,9.9e-4 -0.228296,0.0468 -0.196004,0.0761 0.0486,0.0441 0.235574,0.12085 0.294312,0.12085 0.03781,0 0.165027,0.0242 0.282707,0.0538 0.157138,0.0395 0.204254,0.0634 0.177401,0.0903 -0.04002,0.04 -0.492179,0.0447 -0.952326,0.01 -0.27707,-0.0209 -0.278102,-0.0207 -0.147716,0.0297 0.07222,0.028 0.306157,0.0855 0.519868,0.12793 0.213711,0.0424 0.397126,0.0857 0.407588,0.0961 0.03013,0.0301 -0.48516,0.0193 -0.648437,-0.0136 -0.08124,-0.0164 -0.413606,-0.0372 -0.73858,-0.0463 l -0.590866,-0.0165 0.55804,0.0617 c 0.306921,0.034 0.587582,0.0644 0.62369,0.0676 0.03611,0.003 -8.73e-4,0.0214 -0.08207,0.0404 l -0.147715,0.0345 0.11489,0.0311 c 0.06319,0.0171 0.133355,0.0364 0.155923,0.043 0.06138,0.0178 0.04946,0.10568 -0.01641,0.12097 -0.03159,0.007 0.01641,0.0241 0.106683,0.0373 0.09027,0.0132 0.291518,0.0526 0.447213,0.0876 0.155696,0.0349 0.321877,0.0635 0.369291,0.0635 0.05212,0 0.08621,0.0182 0.08621,0.0461 0,0.0351 -0.08194,0.0517 -0.345256,0.0696 -0.268034,0.0183 -0.351934,0.0355 -0.375107,0.077 -0.02464,0.0442 -0.110261,0.0564 -0.490698,0.0699 -0.376287,0.0134 -0.471141,0.0267 -0.516943,0.0726 -0.05294,0.053 -0.02387,0.0552 0.515902,0.0397 l 0.571999,-0.0165 -0.229781,0.0787 c -0.12638,0.0433 -0.354576,0.0888 -0.507103,0.10117 -0.152526,0.0124 -0.46273,0.0583 -0.689342,0.10206 -0.226612,0.0438 -0.52281,0.0941 -0.658215,0.11193 -0.315775,0.0415 -0.994578,0.16583 -1.01458,0.18583 -0.0084,0.008 0.449048,0.006 1.016629,-0.004 0.734338,-0.0141 1.017764,-0.01 0.982727,0.0152 -0.02723,0.0193 -0.204013,0.0352 -0.395552,0.0355 -0.190473,2.5e-4 -0.360346,0.0142 -0.377498,0.031 -0.01715,0.0168 -0.245373,0.0403 -0.507159,0.0522 -0.341009,0.0156 -0.525193,0.0395 -0.649543,0.0844 -0.09833,0.0355 -0.259245,0.0626 -0.371229,0.0626 -0.137247,0 -0.190732,0.0112 -0.174994,0.0367 0.01645,0.0266 -0.06637,0.0308 -0.301702,0.0152 -0.184696,-0.0122 -0.343904,-0.008 -0.369738,0.009 -0.06364,0.0427 0.0019,0.0581 0.448888,0.10557 l 0.370692,0.0394 0.04449,0.10647 c 0.02447,0.0586 0.05887,0.11537 0.07645,0.12624 0.130952,0.0809 1.697845,0.214 1.810422,0.15375 0.05289,-0.0283 0.06821,-0.0269 0.06821,0.006 0,0.0267 -0.0793,0.058 -0.209961,0.0827 -0.11548,0.0219 -0.252118,0.0577 -0.30364,0.0795 l -0.09368,0.0396 0.08916,0.0121 c 0.04904,0.007 0.255839,-0.0134 0.459561,-0.0446 0.468278,-0.0717 1.149413,-0.0967 1.311599,-0.0481 0.112881,0.0338 0.123823,0.0487 0.158279,0.21464 0.04496,0.21657 0.01361,0.29255 -0.14871,0.36038 -0.07577,0.0317 -0.113706,0.0693 -0.113706,0.11289 0,0.0952 -0.04537,0.11062 -0.310103,0.10549 -0.271944,-0.005 -0.688992,0.0471 -0.768563,0.0964 -0.03835,0.0238 0.0075,0.0284 0.159543,0.0159 0.117352,-0.01 0.324155,-0.006 0.45956,0.007 0.243826,0.0245 0.246289,0.0257 0.255948,0.12429 0.0061,0.0627 -0.01817,0.14061 -0.06565,0.21045 -0.06462,0.095 -0.108826,0.11872 -0.309112,0.16551 -0.12854,0.03 -0.286411,0.0857 -0.350823,0.1237 -0.06441,0.038 -0.188204,0.0785 -0.275091,0.0899 -0.26527,0.035 -0.338521,0.0534 -0.338521,0.0849 0,0.0166 0.02833,0.0302 0.06297,0.0302 0.176015,0 0.217811,0.0903 0.08274,0.17884 -0.14482,0.0949 -0.08797,0.14669 0.29744,0.27103 0.308241,0.0994 0.381961,0.13732 0.503726,0.25886 0.07845,0.0783 0.136607,0.16047 0.129233,0.18259 -0.02748,0.0824 -0.189994,0.16876 -0.345913,0.18374 -0.105441,0.0101 -0.256368,-0.01 -0.437388,-0.057 -0.219606,-0.0576 -0.327221,-0.0684 -0.523777,-0.0527 -0.136061,0.0109 -0.328092,0.005 -0.426735,-0.0123 -0.353435,-0.0632 -0.89377,-0.10404 -0.927761,-0.0701 -0.0218,0.0218 0.01197,0.0507 0.10089,0.0862 0.173959,0.0696 0.208397,0.14685 0.06547,0.14685 -0.208904,0 -0.03729,0.0631 0.319487,0.1175 0.269604,0.0411 0.38032,0.0727 0.437173,0.12469 0.04187,0.0383 0.145274,0.0918 0.22978,0.1189 0.19987,0.0641 0.226154,0.16518 0.06541,0.25166 -0.142878,0.0769 -0.762827,0.0881 -1.487405,0.0269 z m -9.9548089,-4.81675 c -0.07538,-0.0242 -0.128794,-0.0238 -0.180542,10e-4 -0.06201,0.0299 -0.04527,0.0353 0.107049,0.0343 0.172596,-0.001 0.17583,-0.003 0.07349,-0.0355 z m 0.123462,-0.095 c 0,-0.0408 -0.148363,-0.0937 -0.262807,-0.0937 -0.09322,0 -0.149429,0.0424 -0.119677,0.0903 0.02211,0.0356 0.382484,0.0388 0.382484,0.003 z m 0.213368,-0.15938 c 0.01187,-0.0192 -0.02219,-0.0328 -0.08207,-0.0328 -0.05988,0 -0.09393,0.0136 -0.08207,0.0328 0.01115,0.0181 0.04809,0.0328 0.08207,0.0328 0.03398,0 0.07091,-0.0148 0.08207,-0.0328 z m 12.9662169,-0.19695 c 0.01115,-0.0181 -0.01012,-0.0328 -0.0473,-0.0328 -0.03717,0 -0.06759,0.0148 -0.06759,0.0328 0,0.0181 0.02129,0.0328 0.0473,0.0328 0.02602,0 0.05643,-0.0148 0.06759,-0.0328 z m 0.03282,-1.05043 c 0.01115,-0.018 -0.0093,-0.0328 -0.04537,-0.0328 -0.03611,0 -0.07478,0.0148 -0.08594,0.0328 -0.01115,0.0181 0.0093,0.0328 0.04536,0.0328 0.03611,0 0.07478,-0.0148 0.08594,-0.0328 z m -2.888675,-0.55804 c 0.0259,-0.0419 -0.08286,-0.0419 -0.147717,0 -0.03851,0.0249 -0.02999,0.0319 0.03909,0.0323 0.04858,2.5e-4 0.09746,-0.0143 0.108622,-0.0323 z m -1.624881,-0.0657 c 0,-0.0181 -0.02128,-0.0328 -0.0473,-0.0328 -0.02602,0 -0.05643,0.0148 -0.06759,0.0328 -0.01115,0.018 0.01012,0.0328 0.0473,0.0328 0.03717,0 0.06759,-0.0148 0.06759,-0.0328 z m 0.541628,-0.0328 c 0.0231,-0.0374 -0.08287,-0.0374 -0.229782,0 -0.08839,0.0225 -0.08271,0.0255 0.05551,0.0289 0.08469,0.002 0.163115,-0.0109 0.174274,-0.0289 z m -11.59887387,5.1393 c 0.0062,-0.0301 0.02611,-0.054 0.04417,-0.053 0.04872,0.003 0.03977,0.076 -0.01134,0.0931 -0.02761,0.009 -0.03992,-0.006 -0.03282,-0.04 z M 1.5292611,185.2876 c 0,-0.0271 0.01477,-0.0492 0.03283,-0.0492 0.01805,0 0.03283,0.0222 0.03283,0.0492 0,0.0271 -0.01477,0.0492 -0.03283,0.0492 -0.01805,0 -0.03283,-0.0221 -0.03283,-0.0492 z m -0.61025797,-0.38984 c -0.02781,-0.0725 0.0092,-0.10947 0.05933,-0.0593 0.02961,0.0296 0.02973,0.048 4.95e-4,0.0772 -0.0292,0.0292 -0.04344,0.025 -0.05986,-0.0178 z m 0.80105797,-0.30552 c 0.0237,-0.009 0.05201,-0.008 0.06292,0.003 0.01091,0.0109 -0.0085,0.0187 -0.04308,0.0172 -0.03824,-0.002 -0.04602,-0.009 -0.01983,-0.0198 z M 0.80709213,184.4486 c 0,-0.0372 0.01477,-0.0585 0.03283,-0.0473 0.01805,0.0112 0.03283,0.0416 0.03283,0.0676 0,0.026 -0.01477,0.0473 -0.03283,0.0473 -0.01805,0 -0.03283,-0.0304 -0.03283,-0.0676 z m -0.403965,-0.13395 c -0.338103,-0.0221 -0.372823,-0.0321 -0.333201,-0.0962 0.018,-0.0291 0.137297,-0.0345 0.454643,-0.0204 0.433834,0.0192 0.57795597,0.0415 0.57795597,0.0893 0,0.0384 -0.33168497,0.0513 -0.69939797,0.0273 z m 1.06048297,-0.0263 c 0,-0.035 0.01477,-0.0728 0.03282,-0.084 0.01862,-0.0115 0.03283,0.0161 0.03283,0.0637 0,0.0462 -0.01477,0.084 -0.03283,0.084 -0.01805,0 -0.03282,-0.0287 -0.03282,-0.0637 z m 1.411512,-0.14724 c 0,-0.0305 0.02807,-0.0516 0.06839,-0.0516 0.08,0 0.06869,0.0767 -0.01366,0.0927 -0.03239,0.006 -0.05472,-0.0105 -0.05472,-0.041 z m -0.459563,-0.60586 c 0,-0.0159 -0.0311,-0.0371 -0.06911,-0.0471 -0.07837,-0.0205 -0.06856,-0.099 0.01439,-0.11509 0.0369,-0.007 0.05472,0.0115 0.05472,0.0575 0,0.0374 0.01477,0.0681 0.03283,0.0681 0.01805,0 0.03282,0.0148 0.03282,0.0328 0,0.0181 -0.01477,0.0328 -0.03282,0.0328 -0.01805,0 -0.03283,-0.0131 -0.03283,-0.029 z m 0.563715,-0.1896 c 0.01384,-0.0718 0.109215,-0.082 0.109215,-0.0116 0,0.0268 -0.02719,0.054 -0.06043,0.0604 -0.04387,0.008 -0.05724,-0.005 -0.04879,-0.0488 z m -2.04908497,-0.22691 c -0.01354,-0.0137 -0.02462,-0.0624 -0.02462,-0.10816 0,-0.0598 0.01001,-0.0731 0.03561,-0.0476 0.01958,0.0196 0.03066,0.0683 0.02462,0.10816 -0.006,0.0399 -0.02206,0.0613 -0.03561,0.0476 z m 1.23466997,-0.0632 c -0.03029,-0.0789 0.04114,-0.13901 0.112094,-0.0943 0.07973,0.0503 0.07023,0.12505 -0.01746,0.1375 -0.04544,0.006 -0.08197,-0.0102 -0.09463,-0.0432 z m 10.6236749,-0.73868 c 0.118562,-0.038 0.204009,-0.038 0.180542,0 -0.01115,0.0181 -0.07481,0.0314 -0.141448,0.0296 -0.108829,-0.003 -0.112808,-0.006 -0.03909,-0.0296 z m -12.51657687,-0.0865 c -0.0773,-0.0773 -0.0078,-0.10116 0.305354,-0.10482 0.385413,-0.004 0.44481797,0.0495 0.07386,0.0671 -0.139921,0.007 -0.277329,0.023 -0.305354,0.0363 -0.02802,0.0133 -0.06126,0.0139 -0.07386,0.001 z m 0.86339297,-0.25622 c 0,-0.0282 0.01477,-0.0512 0.03283,-0.0512 0.01805,0 0.03282,0.0139 0.03282,0.0309 0,0.017 -0.01477,0.04 -0.03282,0.0512 -0.01805,0.0112 -0.03283,-0.003 -0.03283,-0.0309 z m 9.0271139,0.0145 c 0,-0.0181 0.01477,-0.0328 0.03283,-0.0328 0.01806,0 0.03283,0.0148 0.03283,0.0328 0,0.0181 -0.01477,0.0328 -0.03283,0.0328 -0.01806,0 -0.03283,-0.0148 -0.03283,-0.0328 z m 0.869886,-0.0328 c 0.01115,-0.018 0.04244,-0.0328 0.06953,-0.0328 0.02708,0 0.04011,0.0148 0.02895,0.0328 -0.01115,0.018 -0.04244,0.0328 -0.06953,0.0328 -0.02708,0 -0.04011,-0.0148 -0.02895,-0.0328 z m 1.075672,-0.0884 c 0.03194,-0.008 0.07625,-0.008 0.09848,0.001 0.02222,0.009 -0.0039,0.0158 -0.05807,0.0151 -0.05416,-6.2e-4 -0.07235,-0.008 -0.04041,-0.0163 z m 4.318027,-0.0325 c 0.0237,-0.009 0.05201,-0.008 0.06292,0.003 0.01091,0.0109 -0.0085,0.0187 -0.04308,0.0172 -0.03824,-0.002 -0.04602,-0.009 -0.01983,-0.0198 z m -2.102906,-0.0978 c 0.02257,-0.009 0.0595,-0.009 0.08207,0 0.02257,0.009 0.0041,0.0166 -0.04103,0.0166 -0.04513,0 -0.0636,-0.007 -0.04103,-0.0166 z m -9.8372249,-0.12316 c -0.02448,-0.0295 -0.03477,-0.0634 -0.02287,-0.0753 0.03066,-0.0307 0.09623,0.0424 0.08048,0.0896 -0.0091,0.0272 -0.02685,0.0227 -0.05761,-0.0143 z m -1.530081,-0.28401 c -0.0119,-0.0193 -0.01376,-0.0429 -0.0041,-0.0525 0.02351,-0.0235 0.08754,0.0179 0.08754,0.0567 0,0.0419 -0.05667,0.0391 -0.08341,-0.004 z m 7.2247729,-0.29045 c -0.01057,-0.0171 -0.0052,-0.0397 0.01187,-0.0503 0.0171,-0.0106 0.03974,-0.005 0.05031,0.0119 0.01057,0.0171 0.0052,0.0397 -0.01187,0.0503 -0.0171,0.0106 -0.03974,0.005 -0.05031,-0.0119 z m -7.6775149,-0.0575 c -0.03998,-0.04 -0.02262,-0.10942 0.02735,-0.10942 0.02736,0 0.04924,0.0292 0.04924,0.0657 0,0.0654 -0.03498,0.0854 -0.07659,0.0438 z"
       id="path826-1"
       inkscape:connector-curvature="0" />
  </g>
</svg>
